<mxfile host="app.diagrams.net" agent="Mozilla/5.0 (Macintosh; Intel Mac OS X 10_15_7) AppleWebKit/537.36 (KHTML, like Gecko) Chrome/135.0.0.0 Safari/537.36" version="26.2.12">
  <diagram id="C5RBs43oDa-KdzZeNtuy" name="Page-1">
    <mxGraphModel dx="782" dy="548" grid="1" gridSize="10" guides="1" tooltips="1" connect="1" arrows="1" fold="1" page="1" pageScale="1" pageWidth="827" pageHeight="1169" math="0" shadow="0">
      <root>
        <mxCell id="WIyWlLk6GJQsqaUBKTNV-0" />
        <mxCell id="WIyWlLk6GJQsqaUBKTNV-1" parent="WIyWlLk6GJQsqaUBKTNV-0" />
        <mxCell id="yr8fCTWt7EokmB9WBIkE-0" value="" style="ellipse;whiteSpace=wrap;html=1;aspect=fixed;strokeColor=default;movable=0;resizable=0;rotatable=0;deletable=0;editable=0;locked=1;connectable=0;" vertex="1" parent="WIyWlLk6GJQsqaUBKTNV-1">
          <mxGeometry x="254" y="100" width="160" height="160" as="geometry" />
        </mxCell>
        <mxCell id="yr8fCTWt7EokmB9WBIkE-2" value="" style="shape=flexArrow;endArrow=classic;html=1;rounded=0;movable=0;resizable=0;rotatable=0;deletable=0;editable=0;locked=1;connectable=0;" edge="1" parent="WIyWlLk6GJQsqaUBKTNV-1" source="yr8fCTWt7EokmB9WBIkE-0">
          <mxGeometry width="50" height="50" relative="1" as="geometry">
            <mxPoint x="400" y="330" as="sourcePoint" />
            <mxPoint x="540" y="170" as="targetPoint" />
            <Array as="points">
              <mxPoint x="420" y="160" />
            </Array>
          </mxGeometry>
        </mxCell>
        <mxCell id="yr8fCTWt7EokmB9WBIkE-3" value="Dying Declaration" style="text;html=1;align=center;verticalAlign=middle;whiteSpace=wrap;rounded=0;movable=0;resizable=0;rotatable=0;deletable=0;editable=0;locked=1;connectable=0;" vertex="1" parent="WIyWlLk6GJQsqaUBKTNV-1">
          <mxGeometry x="304" y="180" width="60" height="30" as="geometry" />
        </mxCell>
        <mxCell id="yr8fCTWt7EokmB9WBIkE-4" value="" style="ellipse;shape=cloud;whiteSpace=wrap;html=1;movable=0;resizable=0;rotatable=0;deletable=0;editable=0;locked=1;connectable=0;" vertex="1" parent="WIyWlLk6GJQsqaUBKTNV-1">
          <mxGeometry x="530" y="130" width="120" height="80" as="geometry" />
        </mxCell>
        <mxCell id="yr8fCTWt7EokmB9WBIkE-5" value="ELEMENTS" style="text;html=1;align=center;verticalAlign=middle;whiteSpace=wrap;rounded=0;movable=0;resizable=0;rotatable=0;deletable=0;editable=0;locked=1;connectable=0;" vertex="1" parent="WIyWlLk6GJQsqaUBKTNV-1">
          <mxGeometry x="560" y="155" width="60" height="30" as="geometry" />
        </mxCell>
        <mxCell id="yr8fCTWt7EokmB9WBIkE-6" value="&lt;h1 style=&quot;margin-top: 0px;&quot;&gt;Declarant&lt;/h1&gt;&lt;p&gt;- has been competent as a witness had he or she survived&lt;/p&gt;&lt;p&gt;- under the consciousness of his or her impending death at the time the declaration was made&lt;/p&gt;" style="text;html=1;whiteSpace=wrap;overflow=hidden;rounded=0;" vertex="1" parent="WIyWlLk6GJQsqaUBKTNV-1">
          <mxGeometry x="550" y="220" width="180" height="120" as="geometry" />
        </mxCell>
        <mxCell id="yr8fCTWt7EokmB9WBIkE-7" value="&lt;h1 style=&quot;margin-top: 0px;&quot;&gt;Declaration&lt;/h1&gt;&lt;p&gt;- concern about the cause and circumstances surrounding hir or her death&lt;/p&gt;&lt;p&gt;- offered in criminal case, such as parricide, murder, or homicide and is subject of inquiry for which the declarant is the victim&lt;/p&gt;" style="text;html=1;whiteSpace=wrap;overflow=hidden;rounded=0;" vertex="1" parent="WIyWlLk6GJQsqaUBKTNV-1">
          <mxGeometry x="540" y="360" width="180" height="180" as="geometry" />
        </mxCell>
      </root>
    </mxGraphModel>
  </diagram>
</mxfile>
